<?xml version="1.0" encoding="utf-8"?>
<!-- Generator: Adobe Illustrator 19.2.1, SVG Export Plug-In . SVG Version: 6.00 Build 0)  -->
<svg version="1.1" xmlns="http://www.w3.org/2000/svg" xmlns:xlink="http://www.w3.org/1999/xlink" x="0px" y="0px"
	 viewBox="0 0 30 30" enable-background="new 0 0 30 30" xml:space="preserve">
<g id="Layer_1" display="none">
	<g display="inline">
		<path fill="#3C5B9B" d="M11,30h6c0,0,0-8.3,0-15h4.5L22,9h-4.8V6.6c0-1.2,0.8-1.4,1.3-1.4c0.5,0,3.4,0,3.4,0V0l-4.6,0
			C12.1,0,11,3.8,11,6.3V9H8v6h3C11,21.8,11,30,11,30z"/>
	</g>
</g>
<g id="Layer_2">
	<g>
		<path fill="#55ACEE" d="M29.2,3.4c-1.2,0.7-2.5,1.2-3.9,1.5C24.1,3.7,22.5,3,20.8,3c-3.4,0-6.2,2.7-6.2,6.1c0,0.5,0.1,0.9,0.2,1.4
			C9.7,10.2,5.1,7.8,2.1,4.1C1.6,5,1.3,6,1.3,7.2c0,2.1,1.1,4,2.7,5c-1,0-2-0.3-2.8-0.8c0,0,0,0.1,0,0.1c0,2.9,2.1,5.4,4.9,5.9
			c-0.5,0.1-1.1,0.2-1.6,0.2c-0.4,0-0.8,0-1.2-0.1c0.8,2.4,3.1,4.2,5.8,4.2c-2.1,1.6-4.8,2.6-7.6,2.6c-0.5,0-1,0-1.5-0.1
			C2.7,26,6,27,9.4,27c11.3,0,17.5-9.2,17.5-17.2c0-0.3,0-0.5,0-0.8c1.2-0.9,2.2-1.9,3.1-3.1c-1.1,0.5-2.3,0.8-3.5,1
			C27.7,6,28.7,4.9,29.2,3.4z"/>
	</g>
</g>
</svg>
