<svg id="Layer_2" data-name="Layer 2" xmlns="http://www.w3.org/2000/svg" xmlns:xlink="http://www.w3.org/1999/xlink" viewBox="0 0 365.65 77.26"><defs><style>.cls-1{fill:url(#linear-gradient);}.cls-2{fill:url(#linear-gradient-2);}.cls-3{fill:url(#linear-gradient-3);}.cls-4{fill:url(#linear-gradient-4);}.cls-5{fill:url(#linear-gradient-6);}.cls-6{fill:url(#linear-gradient-7);}.cls-7{fill:url(#linear-gradient-9);}</style><linearGradient id="linear-gradient" x1="67.18" y1="243.54" x2="432.82" y2="243.54" gradientUnits="userSpaceOnUse"><stop offset="0" stop-color="#145460"/><stop offset="1" stop-color="#68ad7d"/></linearGradient><linearGradient id="linear-gradient-2" x1="67.18" y1="258.73" x2="432.82" y2="258.73" xlink:href="#linear-gradient"/><linearGradient id="linear-gradient-3" x1="67.18" y1="250.24" x2="432.82" y2="250.24" xlink:href="#linear-gradient"/><linearGradient id="linear-gradient-4" x1="67.18" y1="244.18" x2="432.82" y2="244.18" xlink:href="#linear-gradient"/><linearGradient id="linear-gradient-6" x1="67.18" y1="249.92" x2="432.82" y2="249.92" xlink:href="#linear-gradient"/><linearGradient id="linear-gradient-7" x1="67.18" y1="241.55" x2="432.82" y2="241.55" xlink:href="#linear-gradient"/><linearGradient id="linear-gradient-9" x1="67.18" y1="242.15" x2="432.82" y2="242.15" xlink:href="#linear-gradient"/></defs><title>Logo</title><path class="cls-1" d="M82.4,231a4.42,4.42,0,0,0,2.19,3.87q2.19,1.43,10.13,3.39T107,244.14q4.39,3.91,4.38,11.4a15,15,0,0,1-5.62,12.16q-5.62,4.66-14.79,4.66-13.23,0-23.84-9.81l7.41-9.09q9,7.89,16.66,7.89a8.74,8.74,0,0,0,5.38-1.47,4.73,4.73,0,0,0,2-4,4.65,4.65,0,0,0-2.07-4q-2.07-1.48-8.21-3-9.73-2.31-14.23-6t-4.5-11.64q0-7.93,5.7-12.24t14.23-4.3a34.24,34.24,0,0,1,11.16,1.91,29.88,29.88,0,0,1,9.73,5.42l-6.3,9.09q-7.25-5.5-15-5.5a7.5,7.5,0,0,0-4.9,1.48A4.8,4.8,0,0,0,82.4,231Z" transform="translate(-67.18 -211.37)"/><path class="cls-2" d="M109.43,283.53l5.42-8.85a9,9,0,0,0,6.22,3,3.49,3.49,0,0,0,2.87-1.63,5.77,5.77,0,0,0,1.2-3.47q0-1.83-16.58-43.69h12.76l10.44,26.71,10.44-26.71H155L135,279.38a14.24,14.24,0,0,1-5.46,6.82,14.72,14.72,0,0,1-8.25,2.43Q115,288.63,109.43,283.53Z" transform="translate(-67.18 -211.37)"/><path class="cls-3" d="M170,272.36a31.7,31.7,0,0,1-10-1.71,29.42,29.42,0,0,1-9.33-5.06l5.26-7.49a22.92,22.92,0,0,0,14.27,5.18,6.46,6.46,0,0,0,3.67-.92,2.81,2.81,0,0,0,1.36-2.43,3.51,3.51,0,0,0-1.87-2.79,21.14,21.14,0,0,0-5.42-2.39q-3.55-1.12-5.42-1.91a30.51,30.51,0,0,1-4.27-2.31,9.9,9.9,0,0,1-4.86-9,11.76,11.76,0,0,1,4.78-9.69q4.78-3.75,12.36-3.75t15.15,5.1l-4.46,8a19.58,19.58,0,0,0-11.12-3.83q-5.54,0-5.54,3a2.91,2.91,0,0,0,1.75,2.63,35.52,35.52,0,0,0,5.82,2.23q4.07,1.28,5.78,2a29.06,29.06,0,0,1,4.11,2.11q4.46,2.71,4.46,9a12.49,12.49,0,0,1-4.66,10.17A18,18,0,0,1,170,272.36Z" transform="translate(-67.18 -211.37)"/><path class="cls-4" d="M203.6,256.66a5.52,5.52,0,0,0,1.28,3.87,4,4,0,0,0,3,1.4,6.91,6.91,0,0,0,5.66-3l4.46,8.37q-5.58,5.1-11.76,5.1a14.57,14.57,0,0,1-10.44-4.07q-4.26-4.07-4.26-11.08V237.44h-5v-8.61h5V216h12v12.84H214v8.61H203.6v19.21Z" transform="translate(-67.18 -211.37)"/><path class="cls-3" d="M238.56,272.36q-9.77,0-16.14-6T216,250.2q0-10.12,6.5-16.11a21.92,21.92,0,0,1,15.35-6,22.2,22.2,0,0,1,15,5.34q6.18,5.34,6.18,14.67v6.38H227.83a8.53,8.53,0,0,0,3.67,5.74,11.74,11.74,0,0,0,7,2.23,13.76,13.76,0,0,0,10.36-4.23l6.7,7.26A24,24,0,0,1,238.56,272.36ZM238.08,238a10.78,10.78,0,0,0-6.5,2.15,8.23,8.23,0,0,0-3.43,5.82H247a8.49,8.49,0,0,0-2.87-5.9A9.05,9.05,0,0,0,238.08,238Z" transform="translate(-67.18 -211.37)"/><path class="cls-5" d="M301.11,271.73h-12V248.29q0-5.1-1.55-7.49a5.54,5.54,0,0,0-5-2.39,8.56,8.56,0,0,0-6.14,2.59q-2.67,2.59-2.67,7.61v23.12h-12V228.83h12v4.86q4.94-5.58,11.32-5.58a12.29,12.29,0,0,1,7.37,2.39,15.55,15.55,0,0,1,5,5.82,16.83,16.83,0,0,1,6.66-6.06,18.23,18.23,0,0,1,8.41-2.15q7.57,0,12.2,4.5t4.62,13v26.07h-12V248.29q0-9.89-7.25-9.89a8.57,8.57,0,0,0-6.22,2.59q-2.63,2.59-2.63,7.61v23.12Z" transform="translate(-67.18 -211.37)"/><path class="cls-6" d="M335.12,213.41a7.12,7.12,0,1,1-2,5A6.78,6.78,0,0,1,335.12,213.41Zm-1,58.32V228.83h12v42.89h-12Z" transform="translate(-67.18 -211.37)"/><path class="cls-3" d="M382.75,255.78l7.1,8q-8.29,8.61-17.94,8.61a23.25,23.25,0,0,1-16.3-6.1q-6.66-6.1-6.66-15.95t6.74-16a22.86,22.86,0,0,1,16-6.18A24.9,24.9,0,0,1,381,230a23.68,23.68,0,0,1,8.33,5.66l-6.22,8.13a14.12,14.12,0,0,0-5.06-3.83,14.3,14.3,0,0,0-5.94-1.36,11.64,11.64,0,0,0-8.09,3.07q-3.39,3.07-3.39,8.53t3.39,8.49a11.52,11.52,0,0,0,7.93,3Q378,261.76,382.75,255.78Z" transform="translate(-67.18 -211.37)"/><path class="cls-7" d="M391.84,271.73V212.57h12v30.38l13.31-14.19h15.07l-16.34,17.38,17,25.59H418.63L407.71,255.3l-3.91,4.07v12.36h-12Z" transform="translate(-67.18 -211.37)"/></svg>