<?xml version="1.0" encoding="utf-8"?>
<!-- Generator: Adobe Illustrator 21.0.2, SVG Export Plug-In . SVG Version: 6.00 Build 0)  -->
<svg version="1.1" id="Layer_1" xmlns="http://www.w3.org/2000/svg" xmlns:xlink="http://www.w3.org/1999/xlink" x="0px" y="0px"
	 viewBox="0 0 37.7 58.11" style="enable-background:new 0 0 37.7 58.11;" xml:space="preserve">
<style type="text/css">
	.st0{fill:#383e49;fill-rule:evenodd;clip-rule:evenodd;}
</style>
<path class="st0" d="M18.85,37.74C8.44,37.74,0,29.29,0,18.87C0,8.45,8.44,0,18.85,0S37.7,8.45,37.7,18.87
	C37.7,29.29,29.26,37.74,18.85,37.74z M18.85,3.77c-8.33,0-15.08,6.76-15.08,15.09c0,8.34,6.75,15.09,15.08,15.09
	s15.08-6.76,15.08-15.09C33.93,10.53,27.18,3.77,18.85,3.77z M11.69,43.77h12.82h1.13h1.89c0.62,0,1.13,0.51,1.13,1.13
	c0,0.63-0.51,1.13-1.13,1.13h-1.89h-1.13H11.69c-0.62,0-1.13,0.51-1.13,1.13c0,0.63,0.51,1.13,1.13,1.13h12.82h1.13h1.89
	c0.62,0,1.13,0.51,1.13,1.13c0,0.63-0.51,1.13-1.13,1.13h-1.89h-1.13H11.69c-1.87,0-3.39-1.52-3.39-3.4c0-0.87,0.34-1.66,0.88-2.26
	c-0.54-0.6-0.88-1.39-0.88-2.26c0-1.88,1.52-3.4,3.39-3.4h12.82h1.13h1.89c0.62,0,1.13,0.51,1.13,1.13c0,0.63-0.51,1.13-1.13,1.13
	h-1.89h-1.13H11.69c-0.62,0-1.13,0.51-1.13,1.13C10.56,43.27,11.06,43.77,11.69,43.77z M13.8,53.58c1.24,1.39,3.04,2.26,5.05,2.26
	s3.81-0.88,5.05-2.26h2.78c-1.57,2.7-4.48,4.53-7.83,4.53c-3.35,0-6.26-1.82-7.83-4.53H13.8z"/>
</svg>
